<svg width="400" height="250" viewBox="0 0 400 250" fill="none" xmlns="http://www.w3.org/2000/svg">
<path d="M400 51H0V199H400V51Z" fill="#F1F2F4"/>
<path d="M121.56 136.771C121.56 121.548 121.56 106.449 121.56 91.2851C121.962 91.2618 122.243 91.2312 122.524 91.2313C129.434 91.2333 136.345 91.198 143.255 91.256C148.748 91.302 153.863 92.6592 157.868 96.626C163.741 102.443 165.576 109.507 163.068 117.357C160.575 125.162 154.988 129.717 146.833 130.731C143.216 131.181 139.528 131.054 135.748 131.193C135.748 137.871 135.748 144.634 135.748 151.47C130.986 151.47 126.345 151.47 121.56 151.47C121.56 146.604 121.56 141.75 121.56 136.771ZM143.74 118.389C144.137 118.267 144.547 118.176 144.928 118.017C147.758 116.844 149.402 114.785 149.551 111.669C149.693 108.693 148.697 106.261 145.955 104.816C142.699 103.1 139.183 103.761 135.751 103.599C135.751 108.747 135.751 113.675 135.751 118.804C138.407 118.68 140.971 118.56 143.74 118.389Z" fill="#010101"/>
<path d="M271.528 91.2294C276.478 91.3249 281.329 91.1362 286.122 91.5742C296.636 92.5348 304.411 102.25 303.382 112.753C302.352 123.261 294.757 130.522 284.201 130.988C281.214 131.119 278.217 131.008 275.095 131.008C275.095 137.888 275.095 144.646 275.095 151.474C270.328 151.474 265.689 151.474 260.991 151.474C260.991 131.436 260.991 111.426 260.991 91.2294C264.448 91.2294 267.925 91.2294 271.528 91.2294ZM275.028 104.954C275.028 109.507 275.028 114.061 275.028 118.485C277.685 118.485 280.19 118.685 282.65 118.437C286.159 118.083 288.549 115.393 288.892 111.871C289.244 108.252 287.484 105.464 284.009 104.265C281.11 103.265 278.107 103.729 275.087 103.604C275.062 104.07 275.045 104.393 275.028 104.954Z" fill="#010101"/>
<path d="M51.8287 155.719C46.2979 155.719 40.767 155.719 35 155.719C38.3938 134.124 41.7682 112.651 45.1514 91.1235C45.4473 91.0929 45.7284 91.0387 46.0096 91.0386C55.047 91.0358 64.0861 90.9333 73.1213 91.0743C79.8532 91.1794 85.5151 93.759 89.5432 99.3342C91.6701 102.278 92.8177 105.582 92.4774 109.365C89.5708 108.105 86.6163 107.29 83.497 107.273C75.883 107.232 68.2686 107.266 60.6545 107.228C59.7277 107.223 59.4475 107.581 59.3321 108.432C58.9979 110.897 58.5818 113.352 58.2012 115.811C57.3955 121.016 56.592 126.222 55.7282 131.512C54.3888 139.637 53.1087 147.678 51.8287 155.719Z" fill="#012A92"/>
<path d="M316.365 111.096C319.479 110.252 322.522 110.016 325.6 110.695C328.61 111.359 331.24 112.788 333.749 114.98C333.749 113.707 333.749 112.695 333.749 111.633C337.896 111.633 341.915 111.633 346.006 111.633C346.006 124.941 346.006 138.199 346.006 151.511C341.947 151.511 337.923 151.511 333.785 151.511C333.785 150.492 333.785 149.475 333.785 148.547C331.835 149.634 330.029 150.918 328.028 151.708C320.145 154.819 310.939 151.785 305.611 144.478C298.062 134.126 301.245 118.9 312.262 112.828C313.526 112.131 314.93 111.688 316.365 111.096ZM332.343 128.113C330.715 123.91 326.738 121.726 322.351 122.626C317.806 123.558 315.142 127.462 315.534 132.616C315.825 136.439 318.272 139.442 321.858 140.378C325.705 141.381 329.454 139.992 331.517 136.696C333.163 134.066 333.28 131.222 332.343 128.113Z" fill="#010101"/>
<path d="M188.476 111.585C190.275 112.613 191.985 113.607 193.765 114.643C193.765 113.728 193.765 112.722 193.765 111.648C197.92 111.648 201.938 111.648 206.044 111.648C206.044 124.918 206.044 138.172 206.044 151.497C202.005 151.497 197.953 151.497 193.822 151.497C193.822 150.452 193.822 149.466 193.822 148.349C193.576 148.465 193.421 148.5 193.318 148.592C186.254 154.91 175.277 153.805 168.656 147.858C157.87 138.168 159.7 119.733 172.271 112.839C177.398 110.028 182.807 109.382 188.476 111.585ZM176.557 136.106C176.796 136.494 177.009 136.901 177.278 137.267C179.541 140.345 183.709 141.504 187.463 140.112C191.026 138.792 193.256 135.088 192.983 130.946C192.687 126.461 189.641 123.012 185.551 122.532C180.936 121.99 177.124 124.374 175.945 128.629C175.259 131.105 175.392 133.565 176.557 136.106Z" fill="#010101"/>
<path d="M51.8273 155.827C53.1087 147.678 54.3888 139.637 55.8477 131.536C57.4818 131.484 58.9384 131.534 60.3921 131.491C64.8253 131.36 69.2953 131.501 73.6807 130.964C79.6935 130.227 84.375 126.872 88.1066 122.199C90.9883 118.591 92.4668 114.418 92.8049 109.827C96.1085 111.225 98.5356 113.627 100.274 116.682C104.002 123.234 103.282 129.794 99.6054 136.013C95.3298 143.244 88.8366 147.168 80.3673 147.557C77.2527 147.7 74.1298 147.692 71.0107 147.692C70.1957 147.692 69.8827 147.899 69.7478 148.758C68.6466 155.772 67.4835 162.777 66.3402 169.784C66.3268 169.866 66.3289 169.95 66.3166 170.033C66.0281 171.947 66.0279 171.947 64.1208 171.947C59.6666 171.947 55.2123 171.947 50.758 171.947C50.3119 171.947 49.8659 171.947 49.2127 171.947C50.1048 166.481 50.9653 161.207 51.8273 155.827Z" fill="#60CDFF"/>
<path d="M223.658 137.409C218.729 128.797 213.851 120.262 208.871 111.55C213.979 111.55 218.837 111.531 223.694 111.589C224.035 111.593 224.484 112.093 224.689 112.468C227.745 118.043 230.768 123.637 233.799 129.225C234.07 129.724 234.349 130.218 234.717 130.88C235.864 128.526 236.941 126.332 238.004 124.131C239.883 120.239 241.737 116.335 243.652 112.46C243.845 112.069 244.378 111.594 244.759 111.588C249.17 111.527 253.582 111.549 258.212 111.549C257.983 112.061 257.825 112.463 257.631 112.846C247.878 132.179 238.118 151.507 228.387 170.85C227.996 171.626 227.578 171.92 226.698 171.909C222.454 171.859 218.209 171.887 213.746 171.887C213.979 171.393 214.151 171.005 214.341 170.626C218.613 162.121 222.876 153.611 227.183 145.124C227.518 144.463 227.465 144.031 227.113 143.438C225.946 141.473 224.839 139.472 223.658 137.409Z" fill="#020202"/>
<path d="M365 112.529C365 125.55 365 138.446 365 151.415C360.414 151.415 355.901 151.415 351.3 151.415C351.3 131.409 351.3 111.414 351.3 91.3242C355.777 91.3242 360.292 91.3242 365 91.3242C365 98.303 365 105.353 365 112.529Z" fill="#010101"/>
<path d="M92.7433 109.791C92.4668 114.418 90.9883 118.591 88.1066 122.199C84.375 126.872 79.6935 130.227 73.6807 130.964C69.2953 131.501 64.8253 131.36 60.3921 131.491C58.9384 131.534 57.4818 131.484 55.9071 131.452C56.592 126.222 57.3955 121.016 58.2012 115.811C58.5818 113.352 58.9979 110.897 59.3321 108.432C59.4475 107.581 59.7277 107.223 60.6545 107.228C68.2686 107.266 75.883 107.232 83.497 107.273C86.6163 107.29 89.5708 108.105 92.4617 109.479C92.5897 109.589 92.6357 109.672 92.7433 109.791Z" fill="#008CFF"/>
</svg>
